<svg width="1298" height="512" viewBox="0 0 1298 512" fill="none" xmlns="http://www.w3.org/2000/svg">
    <g clip-path="url(#clip0_106_2)">
        <rect width="1298" height="512" rx="48" fill="#252525" />
        <g filter="url(#filter0_d_106_2)">
            <path fill-rule="evenodd" clip-rule="evenodd" d="M499.25 256.121L455.625 180.56H543L499.25 256.121Z"
                fill="#0086E8" />
            <path fill-rule="evenodd" clip-rule="evenodd" d="M499.25 105.001L455.625 180.561H543L499.25 105.001Z"
                fill="#0093FF" />
            <path fill-rule="evenodd" clip-rule="evenodd"
                d="M412.005 407.242L324.754 256.121L499.257 256.119L412.005 407.242Z" fill="#0076CC" />
            <path fill-rule="evenodd" clip-rule="evenodd" d="M412.005 105L324.754 256.121L499.257 256.119L412.005 105Z"
                fill="#0066B0" />
            <path fill-rule="evenodd" clip-rule="evenodd" d="M237.503 407.242L63 105H411.999L237.503 407.242Z"
                fill="#005A9C" />
        </g>
        <path
            d="M765.592 352.16H726.68L719.512 372H707.224L739.48 283.296H752.92L785.048 372H772.76L765.592 352.16ZM762.264 342.688L746.136 297.632L730.008 342.688H762.264ZM833.282 300.576C841.815 300.576 848.727 303.179 854.018 308.384C859.309 313.504 861.954 320.928 861.954 330.656V372H850.434V332.32C850.434 325.323 848.685 319.989 845.186 316.32C841.687 312.565 836.909 310.688 830.85 310.688C824.706 310.688 819.799 312.608 816.13 316.448C812.546 320.288 810.754 325.877 810.754 333.216V372H799.106V301.856H810.754V311.84C813.058 308.256 816.173 305.483 820.098 303.52C824.109 301.557 828.503 300.576 833.282 300.576ZM876.629 336.672C876.629 329.504 878.08 323.232 880.981 317.856C883.882 312.395 887.85 308.171 892.885 305.184C898.005 302.197 903.68 300.704 909.909 300.704C916.053 300.704 921.386 302.027 925.909 304.672C930.432 307.317 933.802 310.645 936.021 314.656V301.856H947.797V372H936.021V358.944C933.717 363.04 930.261 366.453 925.653 369.184C921.13 371.829 915.84 373.152 909.781 373.152C903.552 373.152 897.92 371.616 892.885 368.544C887.85 365.472 883.882 361.163 880.981 355.616C878.08 350.069 876.629 343.755 876.629 336.672ZM936.021 336.8C936.021 331.509 934.954 326.901 932.821 322.976C930.688 319.051 927.786 316.064 924.117 314.016C920.533 311.883 916.565 310.816 912.213 310.816C907.861 310.816 903.893 311.84 900.309 313.888C896.725 315.936 893.866 318.923 891.733 322.848C889.6 326.773 888.533 331.381 888.533 336.672C888.533 342.048 889.6 346.741 891.733 350.752C893.866 354.677 896.725 357.707 900.309 359.84C903.893 361.888 907.861 362.912 912.213 362.912C916.565 362.912 920.533 361.888 924.117 359.84C927.786 357.707 930.688 354.677 932.821 350.752C934.954 346.741 936.021 342.091 936.021 336.8ZM979.129 277.28V372H967.481V277.28H979.129ZM1059.4 301.856L1017.16 405.024H1005.12L1018.95 371.232L990.661 301.856H1003.59L1025.61 358.688L1047.37 301.856H1059.4ZM1079.81 362.4H1114.24V372H1066.5V362.4L1100.55 311.328H1066.75V301.856H1113.99V311.328L1079.81 362.4ZM1193.36 334.24C1193.36 336.459 1193.23 338.805 1192.97 341.28H1136.91C1137.33 348.192 1139.68 353.611 1143.95 357.536C1148.3 361.376 1153.55 363.296 1159.69 363.296C1164.73 363.296 1168.91 362.144 1172.24 359.84C1175.65 357.451 1178.04 354.293 1179.4 350.368H1191.95C1190.07 357.109 1186.32 362.613 1180.68 366.88C1175.05 371.061 1168.05 373.152 1159.69 373.152C1153.04 373.152 1147.06 371.659 1141.77 368.672C1136.57 365.685 1132.47 361.461 1129.48 356C1126.5 350.453 1125 344.053 1125 336.8C1125 329.547 1126.45 323.189 1129.36 317.728C1132.26 312.267 1136.31 308.085 1141.52 305.184C1146.81 302.197 1152.87 300.704 1159.69 300.704C1166.35 300.704 1172.24 302.155 1177.36 305.056C1182.48 307.957 1186.4 311.968 1189.13 317.088C1191.95 322.123 1193.36 327.84 1193.36 334.24ZM1181.32 331.808C1181.32 327.371 1180.34 323.573 1178.38 320.416C1176.42 317.173 1173.73 314.741 1170.32 313.12C1166.99 311.413 1163.28 310.56 1159.18 310.56C1153.29 310.56 1148.26 312.437 1144.08 316.192C1139.98 319.947 1137.63 325.152 1137.04 331.808H1181.32ZM1220.38 313.248C1222.43 309.237 1225.33 306.123 1229.08 303.904C1232.92 301.685 1237.57 300.576 1243.04 300.576V312.608H1239.96C1226.91 312.608 1220.38 319.691 1220.38 333.856V372H1208.73V301.856H1220.38V313.248Z"
            fill="white" />
        <path
            d="M747.824 218.396L770.383 130.066H789.426L812.644 218.47L832.639 130.066H855.344C854.758 131.58 854.172 133.167 853.586 134.827C853.049 136.438 852.438 138.294 851.755 140.394C851.12 142.444 850.412 144.812 849.631 147.498C848.85 150.135 847.946 153.235 846.921 156.8L824.216 237H801.145L779.904 156.8L759.03 237H735.959L713.62 156.8C712.644 153.284 711.765 150.208 710.983 147.571C710.202 144.886 709.47 142.493 708.786 140.394C708.151 138.245 707.541 136.365 706.955 134.754C706.369 133.094 705.783 131.531 705.197 130.066H727.902L747.824 218.396ZM957.37 225.647C953.415 228.284 949.68 230.457 946.164 232.166C942.648 233.875 939.23 235.218 935.91 236.194C932.639 237.171 929.392 237.854 926.169 238.245C922.995 238.636 919.724 238.831 916.354 238.831C909.03 238.831 902.292 237.635 896.14 235.242C889.987 232.85 884.665 229.334 880.173 224.695C875.729 220.057 872.263 214.368 869.772 207.63C867.282 200.843 866.037 193.055 866.037 184.266C866.037 175.477 867.38 167.615 870.065 160.682C872.8 153.748 876.535 147.889 881.271 143.104C886.057 138.27 891.696 134.583 898.19 132.044C904.685 129.505 911.74 128.235 919.357 128.235C922.482 128.235 925.534 128.382 928.513 128.675C931.491 128.919 934.47 129.407 937.448 130.14C940.427 130.872 943.454 131.922 946.53 133.289C949.655 134.607 952.902 136.341 956.271 138.489L949.973 155.921C944.846 152.308 939.67 149.72 934.445 148.157C929.27 146.595 924.045 145.813 918.771 145.813C913.938 145.813 909.543 146.692 905.588 148.45C901.682 150.159 898.337 152.625 895.554 155.848C892.771 159.021 890.622 162.854 889.108 167.347C887.644 171.839 886.911 176.868 886.911 182.435C886.911 188.392 887.595 193.738 888.962 198.475C890.329 203.211 892.282 207.239 894.821 210.56C897.36 213.88 900.388 216.443 903.903 218.25C907.468 220.008 911.423 220.887 915.769 220.887C917.868 220.887 919.846 220.813 921.701 220.667C923.557 220.472 925.388 220.179 927.194 219.788C929.001 219.349 930.832 218.787 932.688 218.104C934.543 217.42 936.545 216.541 938.693 215.467V195.984H915.622V179.505H957.37V225.647ZM1042.7 154.236C1039.82 152.771 1037.16 151.526 1034.71 150.501C1032.27 149.427 1029.9 148.548 1027.61 147.864C1025.31 147.181 1023.02 146.668 1020.72 146.326C1018.43 145.984 1015.99 145.813 1013.4 145.813C1011.11 145.813 1009.01 146.18 1007.1 146.912C1005.2 147.596 1003.54 148.499 1002.12 149.622C1000.75 150.745 999.68 152.039 998.898 153.504C998.117 154.92 997.727 156.385 997.727 157.898C997.727 159.461 997.995 160.877 998.532 162.146C999.118 163.367 1000.24 164.563 1001.9 165.735C1003.56 166.858 1005.86 168.03 1008.79 169.251C1011.76 170.423 1015.67 171.766 1020.5 173.279C1025.39 174.793 1029.71 176.502 1033.47 178.406C1037.23 180.311 1040.38 182.508 1042.92 184.998C1045.46 187.439 1047.36 190.198 1048.63 193.274C1049.95 196.351 1050.61 199.817 1050.61 203.675C1050.61 208.899 1049.56 213.685 1047.46 218.03C1045.41 222.327 1042.58 226.014 1038.96 229.09C1035.4 232.166 1031.22 234.559 1026.44 236.268C1021.7 237.977 1016.62 238.831 1011.2 238.831C1007.39 238.831 1003.68 238.587 1000.07 238.099C996.457 237.61 993.039 236.927 989.816 236.048C986.643 235.169 983.688 234.144 980.954 232.972C978.269 231.751 975.9 230.408 973.85 228.943L977.512 208.802C982.785 213.05 988.229 216.126 993.845 218.03C999.509 219.935 1005.29 220.887 1011.2 220.887C1013.6 220.887 1015.89 220.569 1018.09 219.935C1020.29 219.251 1022.24 218.299 1023.95 217.078C1025.66 215.809 1027.02 214.271 1028.05 212.464C1029.07 210.657 1029.59 208.582 1029.59 206.238C1029.59 204.725 1029.27 203.284 1028.63 201.917C1028.05 200.55 1026.85 199.207 1025.05 197.889C1023.24 196.521 1020.7 195.13 1017.43 193.714C1014.21 192.298 1009.93 190.735 1004.61 189.026C998.85 187.22 994.162 185.267 990.549 183.167C986.936 181.067 984.104 178.797 982.053 176.355C980.002 173.914 978.61 171.302 977.878 168.519C977.146 165.687 976.779 162.635 976.779 159.363C976.779 157.166 977.097 154.871 977.731 152.479C978.366 150.086 979.318 147.742 980.588 145.447C981.906 143.152 983.566 140.979 985.568 138.929C987.57 136.829 989.938 134.998 992.673 133.436C995.456 131.824 998.63 130.555 1002.19 129.627C1005.76 128.699 1009.74 128.235 1014.13 128.235C1017.26 128.235 1020.16 128.357 1022.85 128.602C1025.58 128.846 1028.22 129.236 1030.76 129.773C1033.35 130.311 1035.86 130.994 1038.3 131.824C1040.79 132.654 1043.36 133.655 1045.99 134.827L1042.7 154.236ZM1107.15 220.154C1114.08 220.154 1120.21 220.105 1125.53 220.008C1130.91 219.91 1135.01 219.593 1137.84 219.056V237H1069.36C1069.89 234.07 1070.21 229.847 1070.31 224.329C1070.41 218.763 1070.46 212.366 1070.46 205.14V161.927C1070.46 154.7 1070.41 148.328 1070.31 142.811C1070.21 137.244 1069.89 132.996 1069.36 130.066H1091.33V220.154H1107.15Z"
            fill="white" />
        <path d="M623 128V384" stroke="white" stroke-width="16" stroke-linecap="round" />
    </g>
    <defs>
        <filter id="filter0_d_106_2" x="31" y="73" width="544" height="366.242" filterUnits="userSpaceOnUse"
            color-interpolation-filters="sRGB">
            <feFlood flood-opacity="0" result="BackgroundImageFix" />
            <feColorMatrix in="SourceAlpha" type="matrix" values="0 0 0 0 0 0 0 0 0 0 0 0 0 0 0 0 0 0 127 0"
                result="hardAlpha" />
            <feOffset />
            <feGaussianBlur stdDeviation="16" />
            <feComposite in2="hardAlpha" operator="out" />
            <feColorMatrix type="matrix" values="0 0 0 0 0 0 0 0 0 0 0 0 0 0 0 0 0 0 0.5 0" />
            <feBlend mode="normal" in2="BackgroundImageFix" result="effect1_dropShadow_106_2" />
            <feBlend mode="normal" in="SourceGraphic" in2="effect1_dropShadow_106_2" result="shape" />
        </filter>
        <clipPath id="clip0_106_2">
            <rect width="1298" height="512" rx="48" fill="white" />
        </clipPath>
    </defs>
</svg>